<?xml version="1.0" encoding="UTF-8" standalone="no"?>
<!DOCTYPE svg PUBLIC "-//W3C//DTD SVG 1.1//EN"
 "http://www.w3.org/Graphics/SVG/1.1/DTD/svg11.dtd">
<!-- Generated by graphviz version 2.40.1 (20161225.0304)
 -->
<!-- Title: G Pages: 1 -->
<svg width="616pt" height="672pt"
 viewBox="0.00 0.00 616.00 672.00" xmlns="http://www.w3.org/2000/svg" xmlns:xlink="http://www.w3.org/1999/xlink">
<g id="graph0" class="graph" transform="scale(1 1) rotate(0) translate(4 668)">
<title>G</title>
<polygon fill="#ffffff" stroke="transparent" points="-4,4 -4,-668 612,-668 612,4 -4,4"/>
<!-- A0 -->
<g id="node1" class="node">
<title>A0</title>
<polygon fill="none" stroke="#000000" points="0,-632 0,-664 608,-664 608,-632 0,-632"/>
<text text-anchor="start" x="288.9975" y="-645" font-family="Helvetica,sans-Serif" font-size="10.00" fill="#000000">Game </text>
<polygon fill="none" stroke="#000000" points="0,-552 0,-632 608,-632 608,-552 0,-552"/>
<text text-anchor="start" x="234.8255" y="-613" font-family="Helvetica,sans-Serif" font-size="10.00" fill="#000000"> &#45;canvas:HTMLCanvasElement</text>
<text text-anchor="start" x="230.932" y="-601" font-family="Helvetica,sans-Serif" font-size="10.00" fill="#000000">&#45;ctx:CanvasRenderingContext2D</text>
<text text-anchor="start" x="269.8385" y="-589" font-family="Helvetica,sans-Serif" font-size="10.00" fill="#000000">&#45;fruit:Fruit array</text>
<text text-anchor="start" x="267.327" y="-577" font-family="Helvetica,sans-Serif" font-size="10.00" fill="#000000">&#45;counter:number</text>
<text text-anchor="start" x="271.7755" y="-565" font-family="Helvetica,sans-Serif" font-size="10.00" fill="#000000">&#45;score:number</text>
<polygon fill="none" stroke="#000000" points="0,-460 0,-552 608,-552 608,-460 0,-460"/>
<text text-anchor="start" x="289.5585" y="-533" font-family="Helvetica,sans-Serif" font-size="10.00" fill="#000000">&#45;loop()</text>
<text text-anchor="start" x="225.0985" y="-521" font-family="Helvetica,sans-Serif" font-size="10.00" fill="#000000">&#45;mouseHandler(event:MouseEvent)</text>
<text text-anchor="start" x="288.1735" y="-509" font-family="Helvetica,sans-Serif" font-size="10.00" fill="#000000">&#45;draw()</text>
<text text-anchor="start" x="286.783" y="-497" font-family="Helvetica,sans-Serif" font-size="10.00" fill="#000000">&#45;move()</text>
<text text-anchor="start" x="9.5125" y="-485" font-family="Helvetica,sans-Serif" font-size="10.00" fill="#000000">&#45;writeTextToCanvas(text:string, fontSize:number, xCoordinate:number, yCoordinate:number, alignmen:CanvasTextAlign, color:string)</text>
<text text-anchor="start" x="207.333" y="-473" font-family="Helvetica,sans-Serif" font-size="10.00" fill="#000000">&#45;randomNumber(min:number, max:number)</text>
</g>
<!-- A1 -->
<g id="node2" class="node">
<title>A1</title>
<polygon fill="none" stroke="#000000" points="206,-378 206,-410 402,-410 402,-378 206,-378"/>
<text text-anchor="start" x="292.613" y="-391" font-family="Helvetica,sans-Serif" font-size="10.00" fill="#000000">Fruit </text>
<polygon fill="none" stroke="#000000" points="206,-298 206,-378 402,-378 402,-298 206,-298"/>
<text text-anchor="start" x="273.716" y="-359" font-family="Helvetica,sans-Serif" font-size="10.00" fill="#000000"> #name:string</text>
<text text-anchor="start" x="265.6575" y="-347" font-family="Helvetica,sans-Serif" font-size="10.00" fill="#000000">#lifespan:number</text>
<text text-anchor="start" x="271.77" y="-335" font-family="Helvetica,sans-Serif" font-size="10.00" fill="#000000">#xPos:number</text>
<text text-anchor="start" x="271.77" y="-323" font-family="Helvetica,sans-Serif" font-size="10.00" fill="#000000">#yPos:number</text>
<text text-anchor="start" x="238.992" y="-311" font-family="Helvetica,sans-Serif" font-size="10.00" fill="#000000">#image:HTMLImageElement </text>
<polygon fill="none" stroke="#000000" points="206,-182 206,-298 402,-298 402,-182 206,-182"/>
<text text-anchor="start" x="254.4135" y="-279" font-family="Helvetica,sans-Serif" font-size="10.00" fill="#000000"> +isKeyDown(number)</text>
<text text-anchor="start" x="271.072" y="-267" font-family="Helvetica,sans-Serif" font-size="10.00" fill="#000000">+getLifeSpan()</text>
<text text-anchor="start" x="277.47" y="-255" font-family="Helvetica,sans-Serif" font-size="10.00" fill="#000000">+getName()</text>
<text text-anchor="start" x="278.8545" y="-243" font-family="Helvetica,sans-Serif" font-size="10.00" fill="#000000">+getXPos()</text>
<text text-anchor="start" x="278.8545" y="-231" font-family="Helvetica,sans-Serif" font-size="10.00" fill="#000000">+getYPos()</text>
<text text-anchor="start" x="276.9105" y="-219" font-family="Helvetica,sans-Serif" font-size="10.00" fill="#000000">+getImage()</text>
<text text-anchor="start" x="215.515" y="-207" font-family="Helvetica,sans-Serif" font-size="10.00" fill="#000000">+draw(ctx:CanvasRenderingContext2D)</text>
<text text-anchor="start" x="219.4075" y="-195" font-family="Helvetica,sans-Serif" font-size="10.00" fill="#000000">+move(canvas:HTMLCanvasElement)</text>
</g>
<!-- A0&#45;&gt;A1 -->
<g id="edge1" class="edge">
<title>A0&#45;&gt;A1</title>
<path fill="none" stroke="#000000" d="M304,-459.9182C304,-446.9589 304,-433.585 304,-420.3265"/>
<polygon fill="#000000" stroke="#000000" points="304,-410.2189 308.5001,-420.2189 304,-415.2189 304.0001,-420.2189 304.0001,-420.2189 304.0001,-420.2189 304,-415.2189 299.5001,-420.219 304,-410.2189 304,-410.2189"/>
</g>
<!-- A2 -->
<g id="node3" class="node">
<title>A2</title>
<polygon fill="none" stroke="#000000" points="140,-100 140,-132 329,-132 329,-100 140,-100"/>
<text text-anchor="start" x="221.7175" y="-113" font-family="Helvetica,sans-Serif" font-size="10.00" fill="#000000">Apple</text>
<polygon fill="none" stroke="#000000" points="140,-56 140,-100 329,-100 329,-56 140,-56"/>
<text text-anchor="start" x="204.7755" y="-81" font-family="Helvetica,sans-Serif" font-size="10.00" fill="#000000">&#45;xVel:number</text>
<text text-anchor="start" x="204.7755" y="-69" font-family="Helvetica,sans-Serif" font-size="10.00" fill="#000000">&#45;yVel:number</text>
<polygon fill="none" stroke="#000000" points="140,0 140,-56 329,-56 329,0 140,0"/>
<text text-anchor="start" x="210.745" y="-37" font-family="Helvetica,sans-Serif" font-size="10.00" fill="#000000">+getXVel()</text>
<text text-anchor="start" x="210.745" y="-25" font-family="Helvetica,sans-Serif" font-size="10.00" fill="#000000">+getYVel()</text>
<text text-anchor="start" x="149.9075" y="-13" font-family="Helvetica,sans-Serif" font-size="10.00" fill="#000000">+move(canvas:HTMLCanvasElement)</text>
</g>
<!-- A1&#45;&gt;A2 -->
<g id="edge2" class="edge">
<title>A1&#45;&gt;A2</title>
<path fill="none" stroke="#000000" d="M266.293,-172.1056C262.0944,-158.3102 257.9481,-144.6866 254.0976,-132.0351"/>
<polygon fill="none" stroke="#000000" points="262.945,-173.1262 269.2051,-181.6738 269.6418,-171.088 262.945,-173.1262"/>
</g>
<!-- A3 -->
<g id="node4" class="node">
<title>A3</title>
<polygon fill="none" stroke="#000000" points="401,-84 347,-84 347,-48 401,-48 401,-84"/>
<text text-anchor="middle" x="374" y="-63" font-family="Helvetica,sans-Serif" font-size="10.00" fill="#000000">Kiwi</text>
</g>
<!-- A1&#45;&gt;A3 -->
<g id="edge3" class="edge">
<title>A1&#45;&gt;A3</title>
<path fill="none" stroke="#000000" d="M341.7647,-171.9159C352.2739,-137.3857 362.4486,-103.9548 368.467,-84.1798"/>
<polygon fill="none" stroke="#000000" points="338.3582,-171.088 338.7949,-181.6738 345.055,-173.1262 338.3582,-171.088"/>
</g>
</g>
</svg>
